<svg width="130" height="49" viewBox="0 0 130 49" fill="none" xmlns="http://www.w3.org/2000/svg">
<path d="M0.752 30.336C0.752 26.752 1.47733 23.616 2.928 20.928C4.37867 18.1973 6.36267 16.0853 8.88 14.592C11.44 13.0987 14.2987 12.352 17.456 12.352C20.1867 12.352 22.7253 12.992 25.072 14.272C27.4187 15.5093 29.2107 17.152 30.448 19.2V0.639999H36.336V48H30.448V41.408C29.296 43.4987 27.5893 45.2267 25.328 46.592C23.0667 47.9147 20.4213 48.576 17.392 48.576C14.2773 48.576 11.44 47.808 8.88 46.272C6.36267 44.736 4.37867 42.5813 2.928 39.808C1.47733 37.0347 0.752 33.8773 0.752 30.336ZM30.448 30.4C30.448 27.7547 29.9147 25.4507 28.848 23.488C27.7813 21.5253 26.3307 20.032 24.496 19.008C22.704 17.9413 20.72 17.408 18.544 17.408C16.368 17.408 14.384 17.92 12.592 18.944C10.8 19.968 9.37067 21.4613 8.304 23.424C7.23733 25.3867 6.704 27.6907 6.704 30.336C6.704 33.024 7.23733 35.3707 8.304 37.376C9.37067 39.3387 10.8 40.8533 12.592 41.92C14.384 42.944 16.368 43.456 18.544 43.456C20.72 43.456 22.704 42.944 24.496 41.92C26.3307 40.8533 27.7813 39.3387 28.848 37.376C29.9147 35.3707 30.448 33.0453 30.448 30.4ZM48.034 48.384C46.9247 48.384 45.986 48 45.218 47.232C44.45 46.464 44.066 45.5253 44.066 44.416C44.066 43.3067 44.45 42.368 45.218 41.6C45.986 40.832 46.9247 40.448 48.034 40.448C49.1007 40.448 49.9967 40.832 50.722 41.6C51.49 42.368 51.874 43.3067 51.874 44.416C51.874 45.5253 51.49 46.464 50.722 47.232C49.9967 48 49.1007 48.384 48.034 48.384ZM91.6155 29.12C91.6155 30.2293 91.5515 31.4027 91.4235 32.64H63.3915C63.6048 36.096 64.7782 38.8053 66.9115 40.768C69.0875 42.688 71.7115 43.648 74.7835 43.648C77.3008 43.648 79.3915 43.072 81.0555 41.92C82.7622 40.7253 83.9568 39.1467 84.6395 37.184H90.9115C89.9728 40.5547 88.0955 43.3067 85.2795 45.44C82.4635 47.5307 78.9648 48.576 74.7835 48.576C71.4555 48.576 68.4688 47.8293 65.8235 46.336C63.2208 44.8427 61.1728 42.7307 59.6795 40C58.1862 37.2267 57.4395 34.0267 57.4395 30.4C57.4395 26.7733 58.1648 23.5947 59.6155 20.864C61.0662 18.1333 63.0928 16.0427 65.6955 14.592C68.3408 13.0987 71.3702 12.352 74.7835 12.352C78.1115 12.352 81.0555 13.0773 83.6155 14.528C86.1755 15.9787 88.1382 17.984 89.5035 20.544C90.9115 23.0613 91.6155 25.92 91.6155 29.12ZM85.5995 27.904C85.5995 25.6853 85.1088 23.7867 84.1275 22.208C83.1462 20.5867 81.8022 19.3707 80.0955 18.56C78.4315 17.7067 76.5755 17.28 74.5275 17.28C71.5835 17.28 69.0662 18.2187 66.9755 20.096C64.9275 21.9733 63.7542 24.576 63.4555 27.904H85.5995ZM112.359 42.624L123.239 12.928H129.447L115.687 48H108.903L95.143 12.928H101.415L112.359 42.624Z" fill="url(#paint0_linear_117_123)"/>
<defs>
<linearGradient id="paint0_linear_117_123" x1="4" y1="9.23158" x2="129.823" y2="16.106" gradientUnits="userSpaceOnUse">
<stop stop-color="#596AFF"/>
<stop offset="0.485" stop-color="#D52FFF"/>
<stop offset="1" stop-color="#FF7043"/>
</linearGradient>
</defs>
</svg>
